<svg width="203" height="34" viewBox="0 0 203 34" fill="none" xmlns="http://www.w3.org/2000/svg">
<path d="M0.405114 33.5946H0V34H0.405114V33.5946ZM0.405114 0.40543V0H0V0.40543H0.405114ZM6.31827 0.40543H6.72338V0H6.31827V0.40543ZM6.31827 28.6183L6.10356 28.9621L6.72338 29.3498V28.6183H6.31827ZM4.5264 27.4975L4.21478 27.2384L3.91851 27.5954L4.31169 27.8413L4.5264 27.4975ZM27.0143 0.40543V0H26.8242L26.7027 0.146362L27.0143 0.40543ZM33.4202 0.40543L33.731 0.665493L34.287 0H33.4202V0.40543ZM5.69111 33.5946V34H5.88045L6.0019 33.8546L5.69111 33.5946ZM16.3975 16.6931L16.1142 16.4034L15.8793 16.6334L16.0558 16.9109L16.3975 16.6931ZM20.5636 12.6135L20.9053 12.3957L20.6371 11.9742L20.2803 12.3237L20.5636 12.6135ZM33.913 33.5946V34H34.6512L34.2547 33.3768L33.913 33.5946ZM27.1487 33.5946L26.8069 33.8123L26.9264 34H27.1487V33.5946ZM0.810229 33.5946V0.40543H0V33.5946H0.810229ZM0.405114 0.810856H6.31827V0H0.405114V0.810856ZM5.91315 0.40543V28.6183H6.72338V0.40543H5.91315ZM6.53298 28.2745L4.74111 27.1537L4.31169 27.8413L6.10356 28.9621L6.53298 28.2745ZM4.83802 27.7566L27.3259 0.664494L26.7027 0.146362L4.21478 27.2384L4.83802 27.7566ZM27.0143 0.810856H33.4202V0H27.0143V0.810856ZM33.1094 0.145367L5.38033 33.3345L6.0019 33.8546L33.731 0.665493L33.1094 0.145367ZM5.69111 33.1891H0.405114V34H5.69111V33.1891ZM16.6808 16.9829L20.8469 12.9033L20.2803 12.3237L16.1142 16.4034L16.6808 16.9829ZM20.2219 12.8312L33.5713 33.8123L34.2547 33.3768L20.9053 12.3957L20.2219 12.8312ZM33.913 33.1891H27.1487V34H33.913V33.1891ZM27.4904 33.3768L16.7392 16.4754L16.0558 16.9109L26.8069 33.8123L27.4904 33.3768Z" fill="black"/>
<path d="M0.405109 33.5946V0.40543H6.31826V28.6183L4.5264 27.4975L27.0143 0.40543H33.4202L5.69111 33.5946H0.405109ZM16.3975 16.6931L20.5636 12.6135L33.913 33.5946H27.1487L16.3975 16.6931Z" fill="black"/>
<path d="M75.7405 16.995C75.7405 18.7858 75.4397 20.3097 74.8395 21.5213C74.2392 22.7328 73.4237 23.7202 72.4157 24.4708C71.3977 25.2214 70.25 25.8007 68.9852 26.1975C67.7205 26.5942 66.3803 26.8624 65.0187 27.0022C63.657 27.142 62.3269 27.2163 61.0835 27.2163H61.008C59.7534 27.2163 58.4245 27.1408 57.0629 27.0022C55.7012 26.8624 54.3711 26.5942 53.1064 26.1975C51.8416 25.8007 50.6826 25.2214 49.6645 24.4708C48.6465 23.7202 47.831 22.7328 47.2307 21.5213C46.6305 20.3097 46.3297 18.7858 46.3297 16.995C46.3297 15.097 46.6305 13.4988 47.2307 12.2545C47.831 11.0103 48.6465 10.0128 49.6545 9.2836C50.6625 8.55441 51.8202 7.99649 53.0749 7.6426C54.3396 7.2887 55.6698 7.0532 57.0314 6.95622C58.393 6.85924 59.7333 6.80635 61.0093 6.80635H61.0848C62.3495 6.80635 63.6797 6.8605 65.0413 6.95622C66.4029 7.0532 67.7432 7.2887 69.0079 7.6426C70.2726 7.99649 71.4316 8.55441 72.4384 9.2836C73.4464 10.0128 74.2606 11.0103 74.8508 12.2545C75.441 13.4988 75.7405 15.0857 75.7405 16.995ZM80.7478 8.67153C79.6328 6.48394 78.0887 4.74596 76.1369 3.49033C74.1851 2.23596 71.9023 1.34556 69.3288 0.840534C66.7553 0.336773 63.9779 0.0785942 61.0735 0.0785942H60.998C58.0822 0.0785942 55.3048 0.33551 52.7427 0.840534C50.1692 1.3443 47.8851 2.24603 45.9346 3.49033C43.9827 4.7447 42.4286 6.48268 41.3237 8.67153C40.2087 10.8491 39.6512 13.6487 39.6512 16.995C39.6512 20.1485 40.1659 22.8411 41.1953 24.9972C42.2247 27.1533 43.6933 28.9014 45.5809 30.2099C47.4686 31.5185 49.7413 32.4731 52.3362 33.0524C54.9311 33.6317 57.8469 33.9214 60.9992 33.9214H61.0747C64.2057 33.9214 67.1114 33.6317 69.7063 33.0524C72.3113 32.4731 74.5853 31.5185 76.4616 30.2099C78.3492 28.9014 79.8279 27.1533 80.8573 24.9972C81.8867 22.8525 82.4114 20.1599 82.4114 16.995C82.4114 13.6487 81.8426 10.8491 80.739 8.67153H80.7503H80.7478Z" fill="black"/>
<path d="M136.914 28.2371L137.2 28.5238L137.892 27.8317H136.914V28.2371ZM134.226 30.927H133.821V31.9058L134.512 31.2137L134.226 30.927ZM134.226 0.517639V0.112209H133.821V0.517639H134.226ZM140.139 0.517639H140.544V0.112209H140.139V0.517639ZM140.139 33.4824V33.8878H140.544V33.4824H140.139ZM87.8166 33.4824H87.4114V33.8878H87.8166V33.4824ZM87.8166 0.517639V0.112209H87.4114V0.517639H87.8166ZM93.7297 0.517639H94.1348V0.112209H93.7297V0.517639ZM93.7297 30.927L93.4432 31.2137L94.1348 31.9058V30.927H93.7297ZM91.0419 28.2371V27.8317H90.0639L90.7554 28.5238L91.0419 28.2371ZM112.679 28.2371L113.023 28.4499L113.404 27.8317H112.679V28.2371ZM111.021 30.927H110.616V32.3568L111.366 31.1398L111.021 30.927ZM111.021 0.517639V0.112209H110.616V0.517639H111.021ZM116.934 0.517639H117.339V0.112209H116.934V0.517639ZM116.934 30.927L116.605 31.1631L117.339 32.1887V30.927H116.934ZM115.008 28.2371V27.8317H114.219L114.679 28.4733L115.008 28.2371ZM136.627 27.9504L133.939 30.6403L134.512 31.2137L137.2 28.5238L136.627 27.9504ZM134.631 30.927V0.517639H133.821V30.927H134.631ZM134.226 0.923069H140.139V0.112209H134.226V0.923069ZM139.734 0.517639V33.4824H140.544V0.517639H139.734ZM140.139 33.0769H87.8166V33.8878H140.139V33.0769ZM88.2217 33.4824V0.517639H87.4114V33.4824H88.2217ZM87.8166 0.923069H93.7297V0.112209H87.8166V0.923069ZM93.3246 0.517639V30.927H94.1348V0.517639H93.3246ZM94.0162 30.6403L91.3284 27.9504L90.7554 28.5238L93.4432 31.2137L94.0162 30.6403ZM91.0419 28.6425H112.679V27.8317H91.0419V28.6425ZM112.334 28.0243L110.676 30.7142L111.366 31.1398L113.023 28.4499L112.334 28.0243ZM111.426 30.927V0.517639H110.616V30.927H111.426ZM111.021 0.923069H116.934V0.112209H111.021V0.923069ZM116.529 0.517639V30.927H117.339V0.517639H116.529ZM117.264 30.6908L115.337 28.0009L114.679 28.4733L116.605 31.1631L117.264 30.6908ZM115.008 28.6425H136.914V27.8317H115.008V28.6425Z" fill="black"/>
<path d="M136.914 28.2371L134.226 30.927V0.517647H140.139V33.4824H87.8166V0.517647H93.7297V30.927L91.0419 28.2371H112.679L111.021 30.927V0.517647H116.934V30.927L115.008 28.2371H136.914Z" fill="black"/>
<path d="M180.853 0.125927V6.24032H166.592V33.8741H159.807V6.24032H145.544V0.125927H180.853Z" fill="black"/>
</svg>
