<svg width="0" height="0" class="hidden">
<defs>
  <symbol fill="none" xmlns="http://www.w3.org/2000/svg" viewBox="0 0 203 34" id="logo">
    <path d="M0.405114 33.5946H0V34H0.405114V33.5946ZM0.405114 0.40543V0H0V0.40543H0.405114ZM6.31827 0.40543H6.72338V0H6.31827V0.40543ZM6.31827 28.6183L6.10356 28.9621L6.72338 29.3498V28.6183H6.31827ZM4.5264 27.4975L4.21478 27.2384L3.91851 27.5954L4.31169 27.8413L4.5264 27.4975ZM27.0143 0.40543V0H26.8242L26.7027 0.146362L27.0143 0.40543ZM33.4202 0.40543L33.731 0.665493L34.287 0H33.4202V0.40543ZM5.69111 33.5946V34H5.88045L6.0019 33.8546L5.69111 33.5946ZM16.3975 16.6931L16.1142 16.4034L15.8793 16.6334L16.0558 16.9109L16.3975 16.6931ZM20.5636 12.6135L20.9053 12.3957L20.6371 11.9742L20.2803 12.3237L20.5636 12.6135ZM33.913 33.5946V34H34.6512L34.2547 33.3768L33.913 33.5946ZM27.1487 33.5946L26.8069 33.8123L26.9264 34H27.1487V33.5946ZM0.810229 33.5946V0.40543H0V33.5946H0.810229ZM0.405114 0.810856H6.31827V0H0.405114V0.810856ZM5.91315 0.40543V28.6183H6.72338V0.40543H5.91315ZM6.53298 28.2745L4.74111 27.1537L4.31169 27.8413L6.10356 28.9621L6.53298 28.2745ZM4.83802 27.7566L27.3259 0.664494L26.7027 0.146362L4.21478 27.2384L4.83802 27.7566ZM27.0143 0.810856H33.4202V0H27.0143V0.810856ZM33.1094 0.145367L5.38033 33.3345L6.0019 33.8546L33.731 0.665493L33.1094 0.145367ZM5.69111 33.1891H0.405114V34H5.69111V33.1891ZM16.6808 16.9829L20.8469 12.9033L20.2803 12.3237L16.1142 16.4034L16.6808 16.9829ZM20.2219 12.8312L33.5713 33.8123L34.2547 33.3768L20.9053 12.3957L20.2219 12.8312ZM33.913 33.1891H27.1487V34H33.913V33.1891ZM27.4904 33.3768L16.7392 16.4754L16.0558 16.9109L26.8069 33.8123L27.4904 33.3768Z" fill="currentColor"></path>
    <path d="M0.405109 33.5946V0.40543H6.31826V28.6183L4.5264 27.4975L27.0143 0.40543H33.4202L5.69111 33.5946H0.405109ZM16.3975 16.6931L20.5636 12.6135L33.913 33.5946H27.1487L16.3975 16.6931Z" fill="currentColor"></path>
    <path d="M75.7405 16.995C75.7405 18.7858 75.4397 20.3097 74.8395 21.5213C74.2392 22.7328 73.4237 23.7202 72.4157 24.4708C71.3977 25.2214 70.25 25.8007 68.9852 26.1975C67.7205 26.5942 66.3803 26.8624 65.0187 27.0022C63.657 27.142 62.3269 27.2163 61.0835 27.2163H61.008C59.7534 27.2163 58.4245 27.1408 57.0629 27.0022C55.7012 26.8624 54.3711 26.5942 53.1064 26.1975C51.8416 25.8007 50.6826 25.2214 49.6645 24.4708C48.6465 23.7202 47.831 22.7328 47.2307 21.5213C46.6305 20.3097 46.3297 18.7858 46.3297 16.995C46.3297 15.097 46.6305 13.4988 47.2307 12.2545C47.831 11.0103 48.6465 10.0128 49.6545 9.2836C50.6625 8.55441 51.8202 7.99649 53.0749 7.6426C54.3396 7.2887 55.6698 7.0532 57.0314 6.95622C58.393 6.85924 59.7333 6.80635 61.0093 6.80635H61.0848C62.3495 6.80635 63.6797 6.8605 65.0413 6.95622C66.4029 7.0532 67.7432 7.2887 69.0079 7.6426C70.2726 7.99649 71.4316 8.55441 72.4384 9.2836C73.4464 10.0128 74.2606 11.0103 74.8508 12.2545C75.441 13.4988 75.7405 15.0857 75.7405 16.995ZM80.7478 8.67153C79.6328 6.48394 78.0887 4.74596 76.1369 3.49033C74.1851 2.23596 71.9023 1.34556 69.3288 0.840534C66.7553 0.336773 63.9779 0.0785942 61.0735 0.0785942H60.998C58.0822 0.0785942 55.3048 0.33551 52.7427 0.840534C50.1692 1.3443 47.8851 2.24603 45.9346 3.49033C43.9827 4.7447 42.4286 6.48268 41.3237 8.67153C40.2087 10.8491 39.6512 13.6487 39.6512 16.995C39.6512 20.1485 40.1659 22.8411 41.1953 24.9972C42.2247 27.1533 43.6933 28.9014 45.5809 30.2099C47.4686 31.5185 49.7413 32.4731 52.3362 33.0524C54.9311 33.6317 57.8469 33.9214 60.9992 33.9214H61.0747C64.2057 33.9214 67.1114 33.6317 69.7063 33.0524C72.3113 32.4731 74.5853 31.5185 76.4616 30.2099C78.3492 28.9014 79.8279 27.1533 80.8573 24.9972C81.8867 22.8525 82.4114 20.1599 82.4114 16.995C82.4114 13.6487 81.8426 10.8491 80.739 8.67153H80.7503H80.7478Z" fill="currentColor"></path>
    <path d="M136.914 28.2371L137.2 28.5238L137.892 27.8317H136.914V28.2371ZM134.226 30.927H133.821V31.9058L134.512 31.2137L134.226 30.927ZM134.226 0.517639V0.112209H133.821V0.517639H134.226ZM140.139 0.517639H140.544V0.112209H140.139V0.517639ZM140.139 33.4824V33.8878H140.544V33.4824H140.139ZM87.8166 33.4824H87.4114V33.8878H87.8166V33.4824ZM87.8166 0.517639V0.112209H87.4114V0.517639H87.8166ZM93.7297 0.517639H94.1348V0.112209H93.7297V0.517639ZM93.7297 30.927L93.4432 31.2137L94.1348 31.9058V30.927H93.7297ZM91.0419 28.2371V27.8317H90.0639L90.7554 28.5238L91.0419 28.2371ZM112.679 28.2371L113.023 28.4499L113.404 27.8317H112.679V28.2371ZM111.021 30.927H110.616V32.3568L111.366 31.1398L111.021 30.927ZM111.021 0.517639V0.112209H110.616V0.517639H111.021ZM116.934 0.517639H117.339V0.112209H116.934V0.517639ZM116.934 30.927L116.605 31.1631L117.339 32.1887V30.927H116.934ZM115.008 28.2371V27.8317H114.219L114.679 28.4733L115.008 28.2371ZM136.627 27.9504L133.939 30.6403L134.512 31.2137L137.2 28.5238L136.627 27.9504ZM134.631 30.927V0.517639H133.821V30.927H134.631ZM134.226 0.923069H140.139V0.112209H134.226V0.923069ZM139.734 0.517639V33.4824H140.544V0.517639H139.734ZM140.139 33.0769H87.8166V33.8878H140.139V33.0769ZM88.2217 33.4824V0.517639H87.4114V33.4824H88.2217ZM87.8166 0.923069H93.7297V0.112209H87.8166V0.923069ZM93.3246 0.517639V30.927H94.1348V0.517639H93.3246ZM94.0162 30.6403L91.3284 27.9504L90.7554 28.5238L93.4432 31.2137L94.0162 30.6403ZM91.0419 28.6425H112.679V27.8317H91.0419V28.6425ZM112.334 28.0243L110.676 30.7142L111.366 31.1398L113.023 28.4499L112.334 28.0243ZM111.426 30.927V0.517639H110.616V30.927H111.426ZM111.021 0.923069H116.934V0.112209H111.021V0.923069ZM116.529 0.517639V30.927H117.339V0.517639H116.529ZM117.264 30.6908L115.337 28.0009L114.679 28.4733L116.605 31.1631L117.264 30.6908ZM115.008 28.6425H136.914V27.8317H115.008V28.6425Z" fill="currentColor"></path>
    <path d="M136.914 28.2371L134.226 30.927V0.517647H140.139V33.4824H87.8166V0.517647H93.7297V30.927L91.0419 28.2371H112.679L111.021 30.927V0.517647H116.934V30.927L115.008 28.2371H136.914Z" fill="currentColor"></path>
    <path d="M180.853 0.125927V6.24032H166.592V33.8741H159.807V6.24032H145.544V0.125927H180.853Z" fill="currentColor"></path>
  </symbol>

  <symbol fill="none" xmlns="http://www.w3.org/2000/svg" viewBox="0 0 24 24" id="search">
    <mask id="mask0_972_31734" maskUnits="userSpaceOnUse" x="0" y="0" width="24" height="24">
      <rect width="24" height="24" fill="#D9D9D9"></rect>
    </mask>
    <g mask="url(#mask0_972_31734)">
      <path d="M19.6 21L13.3 14.7C12.8 15.1 12.225 15.4167 11.575 15.65C10.925 15.8833 10.2333 16 9.5 16C7.68333 16 6.14583 15.3708 4.8875 14.1125C3.62917 12.8542 3 11.3167 3 9.5C3 7.68333 3.62917 6.14583 4.8875 4.8875C6.14583 3.62917 7.68333 3 9.5 3C11.3167 3 12.8542 3.62917 14.1125 4.8875C15.3708 6.14583 16 7.68333 16 9.5C16 10.2333 15.8833 10.925 15.65 11.575C15.4167 12.225 15.1 12.8 14.7 13.3L21 19.6L19.6 21ZM9.5 14C10.75 14 11.8125 13.5625 12.6875 12.6875C13.5625 11.8125 14 10.75 14 9.5C14 8.25 13.5625 7.1875 12.6875 6.3125C11.8125 5.4375 10.75 5 9.5 5C8.25 5 7.1875 5.4375 6.3125 6.3125C5.4375 7.1875 5 8.25 5 9.5C5 10.75 5.4375 11.8125 6.3125 12.6875C7.1875 13.5625 8.25 14 9.5 14Z" fill="#1C1B1F"></path>
    </g>
  </symbol>
  <symbol fill="none" xmlns="http://www.w3.org/2000/svg" viewBox="0 0 24 24" id="menu">
    <rect y="3" width="24" height="3" fill="#0D0C1C"></rect>
    <rect y="11" width="24" height="3" fill="#0D0C1C"></rect>
    <rect y="19" width="24" height="3" fill="#0D0C1C"></rect>
  </symbol>

  <symbol fill="none" xmlns="http://www.w3.org/2000/svg" viewBox="0 0 41 41" id="close">
    <mask id="mask0_3010_3857" maskUnits="userSpaceOnUse" x="0" y="0" width="41" height="41">
      <rect width="41" height="41" fill="#D9D9D9"></rect>
    </mask>
    <g mask="url(#mask0_3010_3857)">
      <path d="M8.02917 34.1667L5.125 31.2625L16.7417 19.6458L5.125 8.02917L8.02917 5.125L19.6458 16.7417L31.2625 5.125L34.1667 8.02917L22.55 19.6458L34.1667 31.2625L31.2625 34.1667L19.6458 22.55L8.02917 34.1667Z" fill="#0D0C1C"></path>
    </g>
  </symbol>

  <symbol fill="none" xmlns="http://www.w3.org/2000/svg" viewBox="0 0 32 33" id="facebook">
    <g clip-path="url(#clip0_3010_3861)">
      <path d="M16 0.867371C7.16352 0.867371 0 8.03089 0 16.8674C0 24.3707 5.16608 30.6671 12.135 32.3963V21.757H8.83584V16.8674H12.135V14.7605C12.135 9.31473 14.5997 6.79057 19.9462 6.79057C20.96 6.79057 22.7091 6.98961 23.4246 7.18801V11.62C23.047 11.5803 22.391 11.5605 21.5763 11.5605C18.953 11.5605 17.9392 12.5544 17.9392 15.1381V16.8674H23.1654L22.2675 21.757H17.9392V32.7503C25.8618 31.7935 32.0006 25.0479 32.0006 16.8674C32 8.03089 24.8365 0.867371 16 0.867371Z" fill="currentColor"></path>
    </g>
    <defs>
      <clipPath id="clip0_3010_3861">
        <rect width="32" height="32" fill="white" transform="translate(0 0.867371)"></rect>
      </clipPath>
    </defs>
  </symbol>

  <symbol fill="none" xmlns="http://www.w3.org/2000/svg" viewBox="0 0 32 33" id="instagram">
    <g clip-path="url(#clip0_3010_3863)">
      <path d="M16 3.74862C20.275 3.74862 20.7813 3.76737 22.4625 3.84237C24.025 3.91112 24.8688 4.17362 25.4313 4.39237C26.175 4.67987 26.7125 5.02987 27.2688 5.58612C27.8313 6.14862 28.175 6.67987 28.4625 7.42362C28.6813 7.98612 28.9438 8.83612 29.0125 10.3924C29.0875 12.0799 29.1063 12.5861 29.1063 16.8549C29.1063 21.1299 29.0875 21.6361 29.0125 23.3174C28.9438 24.8799 28.6813 25.7236 28.4625 26.2861C28.175 27.0299 27.825 27.5674 27.2688 28.1236C26.7063 28.6861 26.175 29.0299 25.4313 29.3174C24.8688 29.5361 24.0188 29.7986 22.4625 29.8674C20.775 29.9424 20.2688 29.9611 16 29.9611C11.725 29.9611 11.2188 29.9424 9.5375 29.8674C7.975 29.7986 7.13125 29.5361 6.56875 29.3174C5.825 29.0299 5.2875 28.6799 4.73125 28.1236C4.16875 27.5611 3.825 27.0299 3.5375 26.2861C3.31875 25.7236 3.05625 24.8736 2.9875 23.3174C2.9125 21.6299 2.89375 21.1236 2.89375 16.8549C2.89375 12.5799 2.9125 12.0736 2.9875 10.3924C3.05625 8.82987 3.31875 7.98612 3.5375 7.42362C3.825 6.67987 4.175 6.14237 4.73125 5.58612C5.29375 5.02362 5.825 4.67987 6.56875 4.39237C7.13125 4.17362 7.98125 3.91112 9.5375 3.84237C11.2188 3.76737 11.725 3.74862 16 3.74862ZM16 0.867371C11.6563 0.867371 11.1125 0.886121 9.40625 0.961121C7.70625 1.03612 6.5375 1.31112 5.525 1.70487C4.46875 2.11737 3.575 2.66112 2.6875 3.55487C1.79375 4.44237 1.25 5.33612 0.8375 6.38612C0.44375 7.40487 0.16875 8.56737 0.09375 10.2674C0.01875 11.9799 0 12.5236 0 16.8674C0 21.2111 0.01875 21.7549 0.09375 23.4611C0.16875 25.1611 0.44375 26.3299 0.8375 27.3424C1.25 28.3986 1.79375 29.2924 2.6875 30.1799C3.575 31.0674 4.46875 31.6174 5.51875 32.0236C6.5375 32.4174 7.7 32.6924 9.4 32.7674C11.1063 32.8424 11.65 32.8611 15.9938 32.8611C20.3375 32.8611 20.8813 32.8424 22.5875 32.7674C24.2875 32.6924 25.4563 32.4174 26.4688 32.0236C27.5188 31.6174 28.4125 31.0674 29.3 30.1799C30.1875 29.2924 30.7375 28.3986 31.1438 27.3486C31.5375 26.3299 31.8125 25.1674 31.8875 23.4674C31.9625 21.7611 31.9813 21.2174 31.9813 16.8736C31.9813 12.5299 31.9625 11.9861 31.8875 10.2799C31.8125 8.57987 31.5375 7.41112 31.1438 6.39862C30.75 5.33612 30.2063 4.44237 29.3125 3.55487C28.425 2.66737 27.5313 2.11737 26.4813 1.71112C25.4625 1.31737 24.3 1.04237 22.6 0.967371C20.8875 0.886121 20.3438 0.867371 16 0.867371Z" fill="currentColor"></path>
      <path d="M16 8.64862C11.4625 8.64862 7.78125 12.3299 7.78125 16.8674C7.78125 21.4049 11.4625 25.0861 16 25.0861C20.5375 25.0861 24.2188 21.4049 24.2188 16.8674C24.2188 12.3299 20.5375 8.64862 16 8.64862ZM16 22.1986C13.0563 22.1986 10.6687 19.8111 10.6687 16.8674C10.6687 13.9236 13.0563 11.5361 16 11.5361C18.9438 11.5361 21.3312 13.9236 21.3312 16.8674C21.3312 19.8111 18.9438 22.1986 16 22.1986Z" fill="currentColor"></path>
      <path d="M26.4625 8.32354C26.4625 9.38604 25.6 10.2423 24.5438 10.2423C23.4813 10.2423 22.625 9.37979 22.625 8.32354C22.625 7.26104 23.4875 6.40479 24.5438 6.40479C25.6 6.40479 26.4625 7.26729 26.4625 8.32354Z" fill="currentColor"></path>
    </g>
    <defs>
      <clipPath id="clip0_3010_3863">
        <rect width="32" height="32" fill="white" transform="translate(0 0.867371)"></rect>
      </clipPath>
    </defs>
  </symbol>

  <symbol fill="none" xmlns="http://www.w3.org/2000/svg" viewBox="0 0 32 33" id="threads">
    <g clip-path="url(#clip0_3010_3871)">
      <path d="M23.5896 15.6988C23.4517 15.6327 23.3117 15.5691 23.1699 15.5082C22.9229 10.9571 20.4361 8.35154 16.2604 8.32487C16.2415 8.32475 16.2227 8.32475 16.2037 8.32475C13.7061 8.32475 11.6289 9.39085 10.3504 11.3308L12.6469 12.9062C13.602 11.4571 15.1009 11.1482 16.2048 11.1482C16.2176 11.1482 16.2304 11.1482 16.243 11.1483C17.6179 11.1571 18.6554 11.5568 19.3269 12.3364C19.8156 12.9039 20.1424 13.6882 20.3042 14.678C19.0852 14.4708 17.7669 14.4071 16.3576 14.4879C12.3875 14.7166 9.83527 17.032 10.0067 20.2494C10.0937 21.8814 10.9067 23.2854 12.2959 24.2025C13.4705 24.9779 14.9832 25.357 16.5555 25.2712C18.6317 25.1574 20.2606 24.3652 21.3969 22.9167C22.2599 21.8167 22.8057 20.3912 23.0467 18.595C24.0362 19.1922 24.7696 19.978 25.1746 20.9227C25.8632 22.5285 25.9034 25.1674 23.7502 27.3187C21.8637 29.2034 19.5961 30.0187 16.169 30.0439C12.3674 30.0157 9.49238 28.7965 7.6231 26.4202C5.87266 24.195 4.96803 20.981 4.93428 16.8674C4.96803 12.7537 5.87266 9.53964 7.6231 7.31449C9.49238 4.93819 12.3674 3.71904 16.1689 3.69079C19.9981 3.71925 22.9232 4.94427 24.8641 7.33204C25.8157 8.50297 26.5332 9.9755 27.0062 11.6924L29.6974 10.9744C29.1241 8.86107 28.2219 7.03999 26.9942 5.5297C24.5061 2.46848 20.8671 0.899895 16.1783 0.867371H16.1596C11.4803 0.899782 7.8821 2.47434 5.4648 5.54725C3.31373 8.28177 2.20415 12.0867 2.16686 16.8561L2.16675 16.8674L2.16686 16.8786C2.20415 21.648 3.31373 25.453 5.4648 28.1875C7.8821 31.2604 11.4803 32.835 16.1596 32.8674H16.1783C20.3384 32.8385 23.2707 31.7494 25.6864 29.3359C28.8469 26.1784 28.7517 22.2205 27.7101 19.7909C26.9627 18.0485 25.5379 16.6334 23.5896 15.6988ZM16.4068 22.4519C14.6668 22.5499 12.8591 21.7689 12.77 20.096C12.7039 18.8557 13.6527 17.4717 16.5136 17.3068C16.8412 17.2879 17.1627 17.2787 17.4786 17.2787C18.5177 17.2787 19.4899 17.3797 20.3737 17.5729C20.0441 21.6899 18.1104 22.3584 16.4068 22.4519Z" fill="currentColor"></path>
    </g>
    <defs>
      <clipPath id="clip0_3010_3871">
        <rect width="32" height="32" fill="white" transform="translate(0 0.867371)"></rect>
      </clipPath>
    </defs>
  </symbol>

  <symbol fill="none" xmlns="http://www.w3.org/2000/svg" viewBox="0 0 32 33" id="tg">
    <g clip-path="url(#clip0_3010_3872)">
      <path fill-rule="evenodd" clip-rule="evenodd" d="M32 16.8674C32 25.7039 24.8366 32.8674 16 32.8674C7.16344 32.8674 0 25.7039 0 16.8674C0 8.03082 7.16344 0.867371 16 0.867371C24.8366 0.867371 32 8.03082 32 16.8674ZM16.5734 12.6793C15.0171 13.3266 11.9068 14.6663 7.24252 16.6985C6.48511 16.9997 6.08834 17.2943 6.05222 17.5824C5.99118 18.0694 6.60095 18.2611 7.43129 18.5222C7.54424 18.5577 7.66127 18.5945 7.78125 18.6335C8.59818 18.8991 9.6971 19.2097 10.2684 19.2221C10.7866 19.2333 11.365 19.0196 12.0035 18.5812C16.3615 15.6394 18.6112 14.1525 18.7524 14.1204C18.8521 14.0978 18.9901 14.0693 19.0837 14.1525C19.1772 14.2357 19.168 14.3931 19.1581 14.4354C19.0977 14.6929 16.7042 16.9182 15.4655 18.0697C15.0793 18.4287 14.8054 18.6834 14.7494 18.7416C14.624 18.8718 14.4962 18.9951 14.3733 19.1135C13.6144 19.8451 13.0452 20.3938 14.4048 21.2898C15.0582 21.7203 15.581 22.0764 16.1026 22.4316C16.6722 22.8195 17.2404 23.2064 17.9755 23.6883C18.1628 23.811 18.3416 23.9385 18.5159 24.0627C19.1788 24.5353 19.7743 24.9599 20.5101 24.8922C20.9377 24.8529 21.3793 24.4509 21.6036 23.2518C22.1336 20.4182 23.1755 14.2786 23.4163 11.7487C23.4374 11.527 23.4108 11.2433 23.3895 11.1188C23.3682 10.9943 23.3237 10.8168 23.1618 10.6855C22.9701 10.53 22.6742 10.4972 22.5418 10.4995C21.94 10.5101 21.0167 10.8311 16.5734 12.6793Z" fill="currentColor"></path>
    </g>
    <defs>
      <clipPath id="clip0_3010_3872">
        <rect width="32" height="32" fill="white" transform="translate(0 0.867371)"></rect>
      </clipPath>
    </defs>
  </symbol>

  <symbol fill="none" xmlns="http://www.w3.org/2000/svg" viewBox="0 0 32 36" id="viber">
    <path d="M11.3787 0.0467399C10.533 0.125214 9.32098 0.386794 8.51008 0.657094C6.59183 1.29361 5.17057 2.18298 3.65341 3.69143C2.13624 5.20859 1.21199 6.67344 0.575477 8.5917C0.00871935 10.2745 0 10.4053 0 15.201C0 19.0811 0.0174387 19.6391 0.156948 20.2756C0.967847 23.9465 3.2436 27.0767 6.36512 28.777L7.06267 29.1606L7.08011 32.2909C7.10627 35.3688 7.10627 35.4298 7.28937 35.5781C7.71662 35.9356 7.76894 35.9007 10.6376 33.0407L13.3406 30.3377L17.3951 30.3029C21.1183 30.268 21.5106 30.2506 22.1907 30.0936C26.6638 29.0037 30.0556 25.9258 31.4594 21.6969C31.9913 20.0925 32 19.9443 32 15.201C32 11.3209 31.9826 10.7628 31.8431 10.1001C31.3286 7.68489 30.2474 5.63584 28.5646 3.89197C26.4545 1.68598 23.8736 0.412952 20.8654 0.0816173C20.0981 -0.00557621 12.1809 -0.0317343 11.3787 0.0467399ZM19.2959 5.09524C23.115 5.87998 25.9401 9.32412 25.9401 13.1955C25.9401 13.9018 25.8354 14.8696 25.7134 15.2707C25.6436 15.5061 25.2076 15.698 24.9461 15.5933C24.5886 15.4625 24.5188 15.2271 24.6409 14.547C24.7019 14.1895 24.7281 13.553 24.7019 12.9252C24.6234 11.1639 24.0044 9.69034 22.8185 8.42603C21.4234 6.95246 19.8714 6.25491 17.7177 6.12412C16.9504 6.07181 16.7237 6.02821 16.5929 5.89742C16.3837 5.68816 16.3924 5.47017 16.6191 5.18243C16.7935 4.96445 16.8283 4.95573 17.709 4.95573C18.2147 4.95573 18.9297 5.01677 19.2959 5.09524ZM10.5417 7.09197C10.8905 7.25764 13.733 10.1176 13.9335 10.51C14.4305 11.4691 14.0381 12.5067 13.0005 12.9775C12.1199 13.3699 11.649 14.0762 11.7624 14.8348C12.0327 16.5612 14.3259 19.1508 16.218 19.8571C17.2905 20.2582 18.1886 19.9268 18.6943 18.9241C18.9733 18.3748 19.3221 18.0086 19.6883 17.8691C20.0283 17.7383 20.7433 17.747 21.0834 17.8952C21.3886 18.0173 24.2747 20.9209 24.5537 21.3743C24.7717 21.7405 24.7717 22.4903 24.5537 22.9612C24.3444 23.4146 22.3651 25.359 21.842 25.6206C20.7956 26.1612 18.9035 25.856 16.8458 24.8271C16.1569 24.4783 14.3084 23.2576 13.515 22.6124C9.94005 19.7437 6.95804 15.6369 6.22561 12.5764C5.96403 11.4516 6.00763 10.3268 6.3564 9.69034C6.68774 9.07998 8.71063 7.09197 9.12044 6.9699C9.49537 6.85655 10.158 6.90887 10.5417 7.09197ZM19.0866 7.48434C20.1417 7.75464 20.9003 8.19933 21.7635 9.05382C22.9406 10.2222 23.4986 11.5214 23.5074 13.117C23.5161 13.5704 23.4725 13.9977 23.4114 14.1023C23.2632 14.3901 22.9319 14.486 22.6267 14.329C22.3128 14.1721 22.2518 13.9715 22.3215 13.3873C22.3913 12.7944 22.182 11.7917 21.842 11.0942C21.5106 10.414 20.7259 9.57699 20.0545 9.18461C19.2698 8.71377 18.5373 8.52194 17.5869 8.52194C16.6627 8.51323 16.436 8.39987 16.436 7.92031C16.436 7.44947 16.7063 7.30996 17.6131 7.30996C18.1275 7.30996 18.6594 7.37099 19.0866 7.48434ZM19.1651 10.0914C20.2638 10.6233 21.0398 11.7481 21.127 12.8903C21.1619 13.4048 21.1444 13.5007 20.9787 13.6664C20.5689 14.0762 20.0719 13.7448 19.9847 13.0037C19.915 12.4108 19.6796 11.9574 19.2 11.5214C18.8076 11.1552 18.145 10.8849 17.648 10.8849C17.491 10.8849 17.3428 10.8064 17.2294 10.6582C17.0027 10.3617 17.0027 10.2658 17.2381 9.96936C17.4125 9.74265 17.4474 9.73393 18.0229 9.76881C18.4501 9.80369 18.7728 9.89088 19.1651 10.0914Z" fill="currentColor"></path>
  </symbol>

  <symbol fill="none" xmlns="http://www.w3.org/2000/svg" viewBox="0 0 32 33" id="x">
    <path d="M24.435 3.40588H28.9329L19.1062 14.6372L30.6666 29.9205H21.6149L14.5253 20.6513L6.41318 29.9205H1.91249L12.4232 17.9073L1.33325 3.40588H10.6147L17.0231 11.8783L24.435 3.40588ZM22.8563 27.2283H25.3487L9.26044 5.95673H6.58587L22.8563 27.2283Z" fill="currentColor"></path>
  </symbol>

  <svg width="0" height="0" class="hidden">
  <symbol fill="none" xmlns="http://www.w3.org/2000/svg" viewBox="0 0 24 24" id="arrow">
    <path d="M18.5711 11.6261L17.1839 13.0179L13.0221 8.81601L12.9814 18.9839L10.9633 18.9759L11.0039 8.80794L6.81534 12.9765L5.43257 11.5736L12.0281 5.0202L18.5711 11.6261Z" fill="currentColor"></path>
  </symbol>
</svg>

  <symbol fill="none" xmlns="http://www.w3.org/2000/svg" viewBox="0 0 24 24" id="arrow-right">
    <mask id="mask0_3007_3330" maskUnits="userSpaceOnUse" x="0" y="0" width="24" height="24">
      <rect width="24" height="24" fill="#D9D9D9"></rect>
    </mask>
    <g mask="url(#mask0_3007_3330)">
      <path d="M12.6 12L8 7.4L9.4 6L15.4 12L9.4 18L8 16.6L12.6 12Z" fill="#1C1B1F"></path>
    </g>
  </symbol>

  </defs>
</svg>